<svg width="900" height="1100" viewBox="0 0 900 1100" fill="none" xmlns="http://www.w3.org/2000/svg">
  <rect width="900" height="1100" fill="#f8f5ec"/>
  <defs>
    <filter id="paper" x="-10%" y="-10%" width="120%" height="120%">
      <feTurbulence type="fractalNoise" baseFrequency="0.012 0.026" numOctaves="4" seed="9"/>
      <feColorMatrix type="saturate" values="0"/>
      <feComponentTransfer>
        <feFuncA type="table" tableValues="0 0.12"/>
      </feComponentTransfer>
    </filter>
    <filter id="ink" x="-12%" y="-12%" width="124%" height="124%">
      <feTurbulence type="fractalNoise" baseFrequency="0.018 0.035" numOctaves="3" seed="17"/>
      <feDisplacementMap in="SourceGraphic" scale="10"/>
    </filter>
  </defs>
  <rect width="900" height="1100" fill="#d8d0bf" opacity="0.2" filter="url(#paper)"/>

  <g opacity="0.12" stroke="#8a8074" stroke-width="2.2" fill="none">
    <path d="M37 40c22-27 69-18 82 12 11 27-7 58-37 65-32 8-62-13-67-43-3-16 4-26 22-34Z"/>
    <path d="M41 46c8 23 29 36 62 40"/>
    <path d="M76 34c-10 21-9 42 5 63"/>
  </g>

  <g filter="url(#ink)" stroke="#839084" stroke-width="2" stroke-linejoin="round">
    <path d="M-60 822C8 702 65 553 136 401c55-117 98-253 170-302 72 55 110 222 170 335 71 133 134 263 204 388H-60Z" fill="#bcc6bd" opacity="0.2"/>
    <path d="M90 822c44-93 97-202 151-303 45-83 83-177 139-225 60 59 97 159 145 250 49 92 93 187 139 278H90Z" fill="#c5cec5" opacity="0.22"/>
    <path d="M310 822c33-88 74-188 121-290 38-82 74-188 125-228 51 51 80 156 118 246 39 92 77 185 112 272H310Z" fill="#bfcac3" opacity="0.24"/>
    <path d="M544 822c31-87 71-190 118-299 40-93 77-223 133-273 46 76 61 184 99 272 32 76 65 160 97 300H544Z" fill="#c8d0c7" opacity="0.2"/>
    <path d="M-18 822c31-69 65-141 98-220 36-86 62-190 108-232 43 45 71 145 105 223 34 79 70 157 105 229H-18Z" fill="#aebcb4" opacity="0.17"/>
    <path d="M190 822c40-82 81-176 127-265 40-78 79-162 134-203 51 54 76 144 114 229 36 80 72 161 105 239H190Z" fill="#d4cac6" opacity="0.18"/>
    <path d="M394 822c30-77 66-160 106-247 38-84 71-178 124-219 51 45 81 148 119 235 35 80 72 155 105 231H394Z" fill="#b3c0ba" opacity="0.2"/>
    <path d="M657 822c27-83 57-177 93-276 30-82 48-184 93-226 44 64 57 168 87 254 27 78 49 162 73 248H657Z" fill="#bcc5bc" opacity="0.2"/>
  </g>

  <g opacity="0.42" stroke="#a6aaa4" stroke-width="1.2" fill="none">
    <path d="M78 804c36-155 80-292 151-416"/>
    <path d="M206 808c50-141 96-247 174-356"/>
    <path d="M331 808c68-169 123-279 206-386"/>
    <path d="M474 808c58-155 113-270 190-360"/>
    <path d="M621 807c55-151 93-262 166-372"/>
  </g>

  <g filter="url(#ink)">
    <path d="M0 797c19-2 31-11 48-12 27-1 42 12 68 9 24-2 32-16 56-15 29 1 42 22 68 17 20-4 25-20 47-19 24 1 38 22 62 20 24-3 31-26 54-25 23 0 32 23 56 24 26 1 36-23 63-22 25 1 34 23 61 24 28 1 43-22 70-20 28 2 36 27 63 26 26-1 36-22 63-21 26 1 37 20 62 19 25-1 39-21 59-23v83H0v-65Z" fill="#1c2322" opacity="0.78"/>
    <path d="M0 837c42-3 66 17 102 12 32-4 41-25 75-22 35 3 50 28 83 23 31-5 38-28 67-25 32 3 45 33 75 28 28-5 34-32 63-30 33 1 48 34 82 31 34-4 40-36 75-34 37 1 52 37 89 34 33-3 41-31 73-31 33 0 45 27 76 27 24 0 34-16 40-19v105H0v-99Z" fill="#40423d" opacity="0.22"/>
  </g>

  <g stroke="#161b1a" stroke-width="3" stroke-linecap="round" opacity="0.82">
    <path d="M431 701c17 8 33 8 49 0"/>
    <path d="M455 703c-4 12-2 25 6 38"/>
    <path d="M458 704c-15-12-29-17-44-15"/>
    <path d="M458 704c14-12 29-16 45-12"/>
    <path d="M407 785c15 9 31 10 47 3"/>
    <path d="M432 789c-5 16-2 31 8 45"/>
    <path d="M433 789c-13-13-28-20-45-21"/>
    <path d="M433 789c13-12 28-17 46-14"/>
  </g>

  <g opacity="0.32" stroke="#9a9c93" stroke-width="2" fill="none">
    <path d="M-20 934c102 13 211 11 327-6 118-17 240-13 366 9 98 17 182 17 252-2"/>
    <path d="M-16 974c98-9 188-5 270 12 108 23 219 23 332 0 111-23 225-24 341-1"/>
    <path d="M-10 1010c98 12 198 11 300-2 111-14 222-12 334 8 95 17 191 12 287-14"/>
  </g>

  <g opacity="0.58" stroke="#2d2c27" stroke-width="2" stroke-linecap="round">
    <path d="M798 1008c22 15 41 10 55-16"/>
    <path d="M831 984c-14 25-21 51-22 78"/>
  </g>
  <g opacity="0.62" fill="#b94d3f">
    <rect x="842" y="1010" width="25" height="25" rx="2"/>
    <rect x="823" y="1043" width="26" height="26" rx="2"/>
  </g>
</svg>
